<?xml version="1.0" standalone="no"?>
<!DOCTYPE svg PUBLIC "-//W3C//DTD SVG 20010904//EN"
 "http://www.w3.org/TR/2001/REC-SVG-20010904/DTD/svg10.dtd">
<svg version="1.0" xmlns="http://www.w3.org/2000/svg"
 width="500.000000pt" height="500.000000pt" viewBox="0 0 500.000000 500.000000"
 preserveAspectRatio="xMidYMid meet">
<metadata>
Created by potrace 1.11, written by Peter Selinger 2001-2013
</metadata>
<g transform="translate(0.000000,500.000000) scale(0.100000,-0.100000)"
fill="#000000" stroke="none">
<path d="M1598 4432 l-98 -98 0 -51 c0 -45 5 -58 44 -110 24 -32 54 -67 65
-77 l22 -20 -98 -98 -97 -97 -53 50 c-60 57 -105 79 -162 79 -52 0 -81 -12
-126 -52 -101 -88 -97 -203 9 -314 l47 -48 -101 -100 -100 -101 -52 52 c-65
62 -104 83 -159 83 -41 0 -48 -5 -141 -98 l-98 -98 0 -54 0 -54 177 -178 c235
-236 238 -236 396 -79 l97 97 0 53 c0 52 -1 54 -70 125 l-69 72 103 103 103
103 46 -61 c25 -34 58 -87 73 -119 30 -60 32 -88 24 -287 -4 -96 14 -157 69
-242 24 -36 293 -312 712 -729 726 -723 710 -709 842 -735 45 -9 80 -9 155 1
77 10 106 10 142 0 62 -17 135 -55 198 -103 l53 -40 -102 -103 -103 -103 -63
59 c-72 67 -123 88 -176 71 -18 -6 -69 -47 -114 -94 -149 -150 -147 -159 85
-389 132 -131 185 -178 209 -183 52 -11 109 22 195 113 116 121 117 163 10
274 l-66 69 101 100 100 101 46 -45 c114 -115 240 -116 331 -4 25 31 31 49 34
101 5 76 -14 119 -82 186 l-46 44 97 98 98 98 55 -54 c74 -72 98 -86 143 -86
53 0 81 18 163 102 85 87 94 102 94 164 l0 48 -172 173 c-180 181 -206 199
-272 186 -40 -8 -212 -175 -222 -216 -11 -46 13 -103 73 -174 l56 -65 -97 -97
-97 -96 -35 40 c-20 22 -54 77 -76 122 -38 76 -41 87 -38 155 8 226 6 250 -24
318 -28 61 -73 109 -725 762 -745 747 -739 742 -866 768 -48 10 -80 10 -155 0
-85 -11 -102 -11 -155 5 -71 20 -145 60 -200 109 l-40 35 97 98 98 98 52 -51
c76 -73 96 -84 152 -84 48 0 50 1 142 92 162 158 160 168 -79 406 l-173 172
-54 0 -54 0 -98 -98z"/>
</g>
</svg>
